<svg width="144" height="144" viewBox="0 0 144 144" fill="none" xmlns="http://www.w3.org/2000/svg">
<path d="M126.295 49.4126C125.469 50.0517 110.878 58.2459 110.878 76.4663C110.878 97.5412 129.444 104.997 130 105.182C129.915 105.636 127.05 115.392 120.211 125.333C114.113 134.081 107.743 142.815 98.0541 142.815C88.3648 142.815 85.8713 137.206 74.6859 137.206C63.7855 137.206 59.9098 143 51.047 143C42.1843 143 36.0002 134.905 28.8901 124.964C20.6542 113.291 14 95.1554 14 77.9433C14 50.3357 32.0106 35.6941 49.7362 35.6941C59.1547 35.6941 67.0058 41.8575 72.9191 41.8575C78.5474 41.8575 87.3247 35.3248 98.0398 35.3248C102.101 35.3248 116.692 35.6941 126.295 49.4126ZM92.953 23.6371C97.3844 18.3967 100.519 11.1256 100.519 3.85449C100.519 2.84618 100.434 1.82368 100.248 1C93.0384 1.26983 84.4606 5.78588 79.2883 11.7647C75.2274 16.3659 71.4372 23.6371 71.4372 31.0076C71.4372 32.1153 71.6224 33.223 71.7079 33.5781C72.1639 33.6633 72.9048 33.7627 73.6457 33.7627C80.1147 33.7627 88.2508 29.4454 92.953 23.6371Z" fill="black"/>
</svg>
