<svg width="144" height="144" viewBox="0 0 144 144" fill="none" xmlns="http://www.w3.org/2000/svg">
<path d="M142 73.129C142 68.4206 141.583 63.9506 140.867 59.5998H73.5195V86.4794H112.081C110.352 95.3001 105.286 102.75 97.7767 107.816V125.696H120.782C134.252 113.24 142 94.8829 142 73.129Z" fill="#4285F4"/>
<path d="M73.5199 143.04C92.8303 143.04 108.982 136.603 120.783 125.696L97.777 107.816C91.3403 112.107 83.1751 114.73 73.5199 114.73C54.8652 114.73 39.0712 102.154 33.4092 85.1682H9.68848V103.585C21.4296 126.948 45.5676 143.04 73.5199 143.04Z" fill="#34A853"/>
<path d="M33.4091 85.1681C31.9191 80.8769 31.1443 76.2877 31.1443 71.5197C31.1443 66.7518 31.9787 62.1626 33.4091 57.8714V39.455H9.68837C4.80119 49.1102 2 59.9574 2 71.5197C2 83.0821 4.80119 93.9293 9.68837 103.584L33.4091 85.1681Z" fill="#FBBC05"/>
<path d="M73.5199 28.3099C84.0691 28.3099 93.4858 31.9455 100.936 39.0379L121.319 18.6548C108.982 7.09239 92.8302 0 73.5199 0C45.5676 0 21.4296 16.092 9.68848 39.4551L33.4092 57.8715C39.0712 40.8855 54.8652 28.3099 73.5199 28.3099Z" fill="#EA4335"/>
</svg>
